<svg width="800" height="801" viewBox="0 0 800 801" fill="none" xmlns="http://www.w3.org/2000/svg">
<path fill-rule="evenodd" clip-rule="evenodd" d="M780.267 582.711H765.244C761.324 582.725 757.489 581.568 754.231 579.389C750.972 577.21 748.438 574.107 746.953 570.479C745.469 566.851 745.101 562.862 745.897 559.024C746.693 555.185 748.617 551.672 751.422 548.933L761.911 538.444C765.61 534.715 767.686 529.675 767.686 524.422C767.686 519.169 765.61 514.129 761.911 510.4L734.044 482.533C730.315 478.834 725.275 476.758 720.022 476.758C714.769 476.758 709.729 478.834 706 482.533L695.911 492.622C694.09 494.629 691.866 496.228 689.385 497.315C686.904 498.403 684.22 498.954 681.511 498.933C676.285 498.91 671.279 496.823 667.583 493.128C663.888 489.432 661.801 484.426 661.778 479.2V464.178C661.754 458.936 659.656 453.917 655.941 450.219C652.226 446.521 647.197 444.444 641.956 444.444H602.489C597.262 444.468 592.257 446.554 588.561 450.25C584.866 453.946 582.779 458.951 582.756 464.178V479.2C582.732 484.426 580.646 489.432 576.95 493.128C573.254 496.823 568.249 498.91 563.022 498.933C560.313 498.954 557.63 498.403 555.148 497.315C552.667 496.228 550.443 494.629 548.622 492.622L538.533 482.533C534.804 478.834 529.764 476.758 524.511 476.758C519.258 476.758 514.218 478.834 510.489 482.533L482.622 510.4C478.923 514.129 476.847 519.169 476.847 524.422C476.847 529.675 478.923 534.715 482.622 538.444C486.356 542.178 490.533 545.733 494.089 549.689C497.467 553.244 499.244 558.133 499.022 563.022C498.999 568.249 496.912 573.254 493.217 576.95C489.521 580.646 484.515 582.732 479.289 582.756H464.178C458.951 582.779 453.946 584.866 450.25 588.561C446.554 592.257 444.468 597.262 444.444 602.489V642C444.489 652.889 453.333 661.689 464.178 661.733H479.2C490.089 661.778 498.889 670.622 498.933 681.467C499.052 683.907 498.676 686.346 497.828 688.637C496.98 690.928 495.678 693.025 494 694.8C490.444 698.756 486.311 702.311 482.533 706.044C478.834 709.774 476.758 714.814 476.758 720.067C476.758 725.32 478.834 730.36 482.533 734.089L510.4 761.956C514.129 765.655 519.169 767.731 524.422 767.731C529.675 767.731 534.715 765.655 538.444 761.956L548.533 751.867C550.354 749.86 552.578 748.261 555.059 747.173C557.541 746.086 560.224 745.535 562.933 745.556C573.822 745.6 582.622 754.444 582.667 765.289V780.311C582.711 791.2 591.556 800 602.4 800.044H641.911C647.138 800.021 652.143 797.935 655.839 794.239C659.535 790.543 661.621 785.537 661.644 780.311V765.244C661.668 760.018 663.754 755.012 667.45 751.317C671.146 747.621 676.151 745.535 681.378 745.511C684.087 745.49 686.77 746.041 689.252 747.129C691.733 748.217 693.957 749.816 695.778 751.822L705.867 761.911C709.596 765.61 714.636 767.686 719.889 767.686C725.142 767.686 730.182 765.61 733.911 761.911L761.778 734.044C765.477 730.315 767.553 725.275 767.553 720.022C767.553 714.769 765.477 709.729 761.778 706L751.289 695.511C748.484 692.773 746.56 689.259 745.764 685.421C744.967 681.582 745.335 677.594 746.82 673.965C748.305 670.337 750.839 667.235 754.097 665.056C757.356 662.876 761.191 661.72 765.111 661.733H780.133C782.736 661.739 785.315 661.232 787.722 660.241C790.13 659.251 792.318 657.796 794.163 655.959C796.008 654.122 797.473 651.941 798.474 649.538C799.476 647.135 799.994 644.559 800 641.956V602.489C799.988 597.255 797.907 592.238 794.21 588.532C790.513 584.827 785.501 582.735 780.267 582.711ZM622.222 681.467C606.51 681.467 591.441 675.225 580.33 664.114C569.22 653.004 562.978 637.935 562.978 622.222C562.978 606.51 569.22 591.441 580.33 580.33C591.441 569.22 606.51 562.978 622.222 562.978C637.935 562.978 653.004 569.22 664.114 580.33C675.225 591.441 681.467 606.51 681.467 622.222C681.467 637.935 675.225 653.004 664.114 664.114C653.004 675.225 637.935 681.467 622.222 681.467Z" fill="#494C4E"/>
<path fill-rule="evenodd" clip-rule="evenodd" d="M800 177.778V424C756.218 384.455 700.508 360.627 641.672 356.281C582.835 351.935 524.228 367.318 475.111 400H88.8889V711.111H371.111C382.667 744 400.622 774.222 424 800H44.4444C32.657 800 21.3524 795.317 13.0175 786.983C4.68253 778.648 0 767.343 0 755.556V177.778C0 165.99 4.68253 154.686 13.0175 146.351C21.3524 138.016 32.657 133.333 44.4444 133.333H177.778V44.4444C177.778 32.657 182.46 21.3524 190.795 13.0175C199.13 4.68253 210.435 0 222.222 0C234.01 0 245.314 4.68253 253.649 13.0175C261.984 21.3524 266.667 32.657 266.667 44.4444V133.333H533.333V44.4444C533.333 32.657 538.016 21.3524 546.351 13.0175C554.686 4.68253 565.99 0 577.778 0C589.565 0 600.87 4.68253 609.205 13.0175C617.54 21.3524 622.222 32.657 622.222 44.4444V133.333H755.556C767.343 133.333 778.648 138.016 786.983 146.351C795.317 154.686 800 165.99 800 177.778Z" fill="#494C4E"/>
</svg>
